<svg xmlns="http://www.w3.org/2000/svg" width="19.619" height="22.422" viewBox="0 0 19.619 22.422"><g transform="translate(-1234.191 -538.789)"><circle cx="1" cy="1" r="1" transform="translate(1248 553)"/><path d="M567.743,28.853a.876.876,0,0,0,.876-.876V24.736a3.507,3.507,0,0,0-3.5-3.5h-1.053V18.144a5.256,5.256,0,0,0-10.51,0v3.089H552.5a3.507,3.507,0,0,0-3.5,3.5v7.182a3.507,3.507,0,0,0,3.5,3.5h12.612a3.507,3.507,0,0,0,3.5-3.5.876.876,0,0,0-1.752,0,1.754,1.754,0,0,1-1.752,1.752H552.5a1.754,1.754,0,0,1-1.752-1.752V24.736a1.754,1.754,0,0,1,1.752-1.752h12.612a1.754,1.754,0,0,1,1.752,1.752v3.241A.876.876,0,0,0,567.743,28.853Zm-5.432-7.62H555.3V18.144a3.505,3.505,0,0,1,7.007,0Z" transform="translate(685.191 525.789)"/><circle cx="1" cy="1" r="1" transform="translate(1241 553)"/><circle cx="1" cy="1" r="1" transform="translate(1238 553)"/><circle cx="1" cy="1" r="1" transform="translate(1245 553)"/></g></svg>