<svg xmlns="http://www.w3.org/2000/svg" width="25.414" height="17.412" viewBox="0 0 25.414 17.412"><path d="M1537.485,657.114h-20.947a2.237,2.237,0,0,0-2.233,2.234v12.944a2.237,2.237,0,0,0,2.233,2.234h20.947a2.236,2.236,0,0,0,2.234-2.234V659.348A2.236,2.236,0,0,0,1537.485,657.114Zm-.292,1.49-.3.248-9,7.491a1.384,1.384,0,0,1-1.773,0l-9-7.491-.3-.248Zm-21.4,1.075,7.332,6.1-7.332,4.879Zm21.692,13.359h-20.947a.746.746,0,0,1-.73-.6l8.51-5.666.853.712a2.873,2.873,0,0,0,3.678,0l.854-.712,8.51,5.666A.745.745,0,0,1,1537.485,673.037Zm.745-2.375-7.332-4.879,7.332-6.1Z" transform="translate(-1514.305 -657.114)" fill="#292724"/></svg>